<svg width="18" height="18" viewBox="0 0 18 18" fill="none" xmlns="http://www.w3.org/2000/svg">
<path fill-rule="evenodd" clip-rule="evenodd" d="M8.21429 3.55556H9.78571C10.2194 3.55556 10.5714 3.20789 10.5714 2.77778C10.5714 2.34767 10.2194 2 9.78571 2H8.21429C7.78057 2 7.42857 2.34767 7.42857 2.77778C7.42857 3.20789 7.78057 3.55556 8.21429 3.55556ZM5.85715 8.22231H12.1429C12.5766 8.22231 12.9286 7.87465 12.9286 7.44454C12.9286 7.01442 12.5766 6.66676 12.1429 6.66676H5.85715C5.42343 6.66676 5.07143 7.01442 5.07143 7.44454C5.07143 7.87465 5.42343 8.22231 5.85715 8.22231ZM5.85715 11.3335H12.1429C12.5766 11.3335 12.9286 10.9858 12.9286 10.5557C12.9286 10.1256 12.5766 9.77791 12.1429 9.77791H5.85715C5.42343 9.77791 5.07143 10.1256 5.07143 10.5557C5.07143 10.9858 5.42343 11.3335 5.85715 11.3335ZM5.85715 14.4444H9C9.43372 14.4444 9.78572 14.0967 9.78572 13.6666C9.78572 13.2365 9.43372 12.8888 9 12.8888H5.85715C5.42343 12.8888 5.07143 13.2365 5.07143 13.6666C5.07143 14.0967 5.42343 14.4444 5.85715 14.4444ZM12.1429 3.55559H12.9286C13.796 3.55559 14.5 4.25247 14.5 5.11114V14.4445C14.5 15.3031 13.796 16 12.9286 16H5.07143C4.204 16 3.5 15.3031 3.5 14.4445V5.11114C3.5 4.25247 4.204 3.55559 5.07143 3.55559H5.85714C5.85714 4.41425 6.56114 5.11114 7.42857 5.11114H10.5714C11.4389 5.11114 12.1429 4.41425 12.1429 3.55559Z" fill="black" fill-opacity="0.38"/>
</svg>
